<svg id="コンポーネント_11_1" data-name="コンポーネント 11 – 1" xmlns="http://www.w3.org/2000/svg" xmlns:xlink="http://www.w3.org/1999/xlink" width="72" height="88" viewBox="0 0 72 88">
  <defs>
    <clipPath id="clip-path">
      <rect id="長方形_167079" data-name="長方形 167079" width="72" height="88" fill="#fff"/>
    </clipPath>
  </defs>
  <path id="link_FILL0_wght400_GRAD0_opsz24" d="M112.4-644H98a17.348,17.348,0,0,1-12.735-5.265A17.348,17.348,0,0,1,80-662a17.348,17.348,0,0,1,5.265-12.735A17.348,17.348,0,0,1,98-680h14.4v7.2H98a10.415,10.415,0,0,0-7.65,3.15A10.415,10.415,0,0,0,87.2-662a10.415,10.415,0,0,0,3.15,7.65A10.415,10.415,0,0,0,98-651.2h14.4Zm-10.8-14.4v-7.2h28.8v7.2Zm18,14.4v-7.2H134a10.415,10.415,0,0,0,7.65-3.15A10.415,10.415,0,0,0,144.8-662a10.415,10.415,0,0,0-3.15-7.65A10.415,10.415,0,0,0,134-672.8H119.6V-680H134a17.348,17.348,0,0,1,12.735,5.265A17.348,17.348,0,0,1,152-662a17.348,17.348,0,0,1-5.265,12.735A17.348,17.348,0,0,1,134-644Z" transform="translate(-80 706)" fill="#595757"/>
</svg>
