<svg id="コンポーネント_10_1" data-name="コンポーネント 10 – 1" xmlns="http://www.w3.org/2000/svg" xmlns:xlink="http://www.w3.org/1999/xlink" width="72" height="88" viewBox="0 0 72 88">
  <defs>
    <clipPath id="clip-path">
      <rect id="長方形_167079" data-name="長方形 167079" width="72" height="88" fill="rgba(255,255,255,0)"/>
    </clipPath>
  </defs>
  <path id="link-solid" d="M45.859,26a21.371,21.371,0,0,1,.056,30.169c-.014.014-.028.042-.056.056L36.41,65.673A21.375,21.375,0,1,1,6.179,35.447L11.4,30.231a2.25,2.25,0,0,1,3.839,1.49A25.508,25.508,0,0,0,16.6,39.13a2.24,2.24,0,0,1-.534,2.334l-1.842,1.842a10.121,10.121,0,1,0,14.216,14.41l9.449-9.447a10.108,10.108,0,0,0,0-14.311,10.577,10.577,0,0,0-1.448-1.209,2.249,2.249,0,0,1-.97-1.771,5.552,5.552,0,0,1,1.645-4.189l2.967-2.966a2.26,2.26,0,0,1,2.9-.239A21.441,21.441,0,0,1,45.859,26ZM65.671,6.177a21.4,21.4,0,0,0-30.231,0l-9.449,9.447-.056.056a21.387,21.387,0,0,0,2.939,32.587,2.26,2.26,0,0,0,2.9-.239l2.967-2.966a5.572,5.572,0,0,0,1.645-4.189,2.249,2.249,0,0,0-.97-1.771,10.577,10.577,0,0,1-1.448-1.209,10.108,10.108,0,0,1,0-14.311l9.449-9.447a10.121,10.121,0,1,1,14.216,14.41l-1.842,1.842a2.247,2.247,0,0,0-.534,2.334,25.985,25.985,0,0,1,1.364,7.409,2.25,2.25,0,0,0,3.839,1.49L65.671,36.4a21.388,21.388,0,0,0,0-30.226Z" transform="translate(0.075 8.075)" fill="#fff"/>
</svg>
